<?xml version="1.0" encoding="utf-8" standalone="no"?>
<!DOCTYPE svg PUBLIC "-//W3C//DTD SVG 1.1//EN"
  "http://www.w3.org/Graphics/SVG/1.1/DTD/svg11.dtd">
<svg xmlns:xlink="http://www.w3.org/1999/xlink" width="460.8pt" height="345.6pt" viewBox="0 0 460.8 345.6" xmlns="http://www.w3.org/2000/svg" version="1.1">
 <metadata>
  <rdf:RDF xmlns:dc="http://purl.org/dc/elements/1.1/" xmlns:cc="http://creativecommons.org/ns#" xmlns:rdf="http://www.w3.org/1999/02/22-rdf-syntax-ns#">
   <cc:Work>
    <dc:type rdf:resource="http://purl.org/dc/dcmitype/StillImage"/>
    <dc:date>2024-01-23T06:36:38.154742</dc:date>
    <dc:format>image/svg+xml</dc:format>
    <dc:creator>
     <cc:Agent>
      <dc:title>Matplotlib v3.8.2, https://matplotlib.org/</dc:title>
     </cc:Agent>
    </dc:creator>
   </cc:Work>
  </rdf:RDF>
 </metadata>
 <defs>
  <style type="text/css">*{stroke-linejoin: round; stroke-linecap: butt}</style>
 </defs>
 <g id="figure_1">
  <g id="patch_1">
   <path d="M 0 345.6 
L 460.8 345.6 
L 460.8 0 
L 0 0 
z
" style="fill: #ffffff"/>
  </g>
  <g id="axes_1">
   <g id="patch_2">
    <path d="M 57.6 307.584 
L 414.72 307.584 
L 414.72 41.472 
L 57.6 41.472 
z
" style="fill: #ffffff"/>
   </g>
   <g id="matplotlib.axis_1">
    <g id="xtick_1">
     <g id="line2d_1">
      <path d="M 127.941818 307.584 
L 127.941818 41.472 
" clip-path="url(#p33b333d432)" style="fill: none; stroke-dasharray: 2.96,1.28; stroke-dashoffset: 0; stroke: #b0b0b0; stroke-width: 0.8"/>
     </g>
     <g id="line2d_2">
      <defs>
       <path id="m95ad9311d3" d="M 0 0 
L 0 3.5 
" style="stroke: #000000; stroke-width: 0.8"/>
      </defs>
      <g>
       <use xlink:href="#m95ad9311d3" x="127.941818" y="307.584" style="stroke: #000000; stroke-width: 0.8"/>
      </g>
     </g>
     <g id="text_1">
      <!-- 2 -->
      <g transform="translate(124.760568 322.182437) scale(0.1 -0.1)">
       <defs>
        <path id="DejaVuSans-32" d="M 1228 531 
L 3431 531 
L 3431 0 
L 469 0 
L 469 531 
Q 828 903 1448 1529 
Q 2069 2156 2228 2338 
Q 2531 2678 2651 2914 
Q 2772 3150 2772 3378 
Q 2772 3750 2511 3984 
Q 2250 4219 1831 4219 
Q 1534 4219 1204 4116 
Q 875 4013 500 3803 
L 500 4441 
Q 881 4594 1212 4672 
Q 1544 4750 1819 4750 
Q 2544 4750 2975 4387 
Q 3406 4025 3406 3419 
Q 3406 3131 3298 2873 
Q 3191 2616 2906 2266 
Q 2828 2175 2409 1742 
Q 1991 1309 1228 531 
z
" transform="scale(0.015625)"/>
       </defs>
       <use xlink:href="#DejaVuSans-32"/>
      </g>
     </g>
    </g>
    <g id="xtick_2">
     <g id="line2d_3">
      <path d="M 200.087273 307.584 
L 200.087273 41.472 
" clip-path="url(#p33b333d432)" style="fill: none; stroke-dasharray: 2.96,1.28; stroke-dashoffset: 0; stroke: #b0b0b0; stroke-width: 0.8"/>
     </g>
     <g id="line2d_4">
      <g>
       <use xlink:href="#m95ad9311d3" x="200.087273" y="307.584" style="stroke: #000000; stroke-width: 0.8"/>
      </g>
     </g>
     <g id="text_2">
      <!-- 4 -->
      <g transform="translate(196.906023 322.182437) scale(0.1 -0.1)">
       <defs>
        <path id="DejaVuSans-34" d="M 2419 4116 
L 825 1625 
L 2419 1625 
L 2419 4116 
z
M 2253 4666 
L 3047 4666 
L 3047 1625 
L 3713 1625 
L 3713 1100 
L 3047 1100 
L 3047 0 
L 2419 0 
L 2419 1100 
L 313 1100 
L 313 1709 
L 2253 4666 
z
" transform="scale(0.015625)"/>
       </defs>
       <use xlink:href="#DejaVuSans-34"/>
      </g>
     </g>
    </g>
    <g id="xtick_3">
     <g id="line2d_5">
      <path d="M 272.232727 307.584 
L 272.232727 41.472 
" clip-path="url(#p33b333d432)" style="fill: none; stroke-dasharray: 2.96,1.28; stroke-dashoffset: 0; stroke: #b0b0b0; stroke-width: 0.8"/>
     </g>
     <g id="line2d_6">
      <g>
       <use xlink:href="#m95ad9311d3" x="272.232727" y="307.584" style="stroke: #000000; stroke-width: 0.8"/>
      </g>
     </g>
     <g id="text_3">
      <!-- 6 -->
      <g transform="translate(269.051477 322.182437) scale(0.1 -0.1)">
       <defs>
        <path id="DejaVuSans-36" d="M 2113 2584 
Q 1688 2584 1439 2293 
Q 1191 2003 1191 1497 
Q 1191 994 1439 701 
Q 1688 409 2113 409 
Q 2538 409 2786 701 
Q 3034 994 3034 1497 
Q 3034 2003 2786 2293 
Q 2538 2584 2113 2584 
z
M 3366 4563 
L 3366 3988 
Q 3128 4100 2886 4159 
Q 2644 4219 2406 4219 
Q 1781 4219 1451 3797 
Q 1122 3375 1075 2522 
Q 1259 2794 1537 2939 
Q 1816 3084 2150 3084 
Q 2853 3084 3261 2657 
Q 3669 2231 3669 1497 
Q 3669 778 3244 343 
Q 2819 -91 2113 -91 
Q 1303 -91 875 529 
Q 447 1150 447 2328 
Q 447 3434 972 4092 
Q 1497 4750 2381 4750 
Q 2619 4750 2861 4703 
Q 3103 4656 3366 4563 
z
" transform="scale(0.015625)"/>
       </defs>
       <use xlink:href="#DejaVuSans-36"/>
      </g>
     </g>
    </g>
    <g id="xtick_4">
     <g id="line2d_7">
      <path d="M 344.378182 307.584 
L 344.378182 41.472 
" clip-path="url(#p33b333d432)" style="fill: none; stroke-dasharray: 2.96,1.28; stroke-dashoffset: 0; stroke: #b0b0b0; stroke-width: 0.8"/>
     </g>
     <g id="line2d_8">
      <g>
       <use xlink:href="#m95ad9311d3" x="344.378182" y="307.584" style="stroke: #000000; stroke-width: 0.8"/>
      </g>
     </g>
     <g id="text_4">
      <!-- 8 -->
      <g transform="translate(341.196932 322.182437) scale(0.1 -0.1)">
       <defs>
        <path id="DejaVuSans-38" d="M 2034 2216 
Q 1584 2216 1326 1975 
Q 1069 1734 1069 1313 
Q 1069 891 1326 650 
Q 1584 409 2034 409 
Q 2484 409 2743 651 
Q 3003 894 3003 1313 
Q 3003 1734 2745 1975 
Q 2488 2216 2034 2216 
z
M 1403 2484 
Q 997 2584 770 2862 
Q 544 3141 544 3541 
Q 544 4100 942 4425 
Q 1341 4750 2034 4750 
Q 2731 4750 3128 4425 
Q 3525 4100 3525 3541 
Q 3525 3141 3298 2862 
Q 3072 2584 2669 2484 
Q 3125 2378 3379 2068 
Q 3634 1759 3634 1313 
Q 3634 634 3220 271 
Q 2806 -91 2034 -91 
Q 1263 -91 848 271 
Q 434 634 434 1313 
Q 434 1759 690 2068 
Q 947 2378 1403 2484 
z
M 1172 3481 
Q 1172 3119 1398 2916 
Q 1625 2713 2034 2713 
Q 2441 2713 2670 2916 
Q 2900 3119 2900 3481 
Q 2900 3844 2670 4047 
Q 2441 4250 2034 4250 
Q 1625 4250 1398 4047 
Q 1172 3844 1172 3481 
z
" transform="scale(0.015625)"/>
       </defs>
       <use xlink:href="#DejaVuSans-38"/>
      </g>
     </g>
    </g>
    <g id="text_5">
     <!-- Time [years] -->
     <g transform="translate(204.675625 335.860562) scale(0.1 -0.1)">
      <defs>
       <path id="DejaVuSans-54" d="M -19 4666 
L 3928 4666 
L 3928 4134 
L 2272 4134 
L 2272 0 
L 1638 0 
L 1638 4134 
L -19 4134 
L -19 4666 
z
" transform="scale(0.015625)"/>
       <path id="DejaVuSans-69" d="M 603 3500 
L 1178 3500 
L 1178 0 
L 603 0 
L 603 3500 
z
M 603 4863 
L 1178 4863 
L 1178 4134 
L 603 4134 
L 603 4863 
z
" transform="scale(0.015625)"/>
       <path id="DejaVuSans-6d" d="M 3328 2828 
Q 3544 3216 3844 3400 
Q 4144 3584 4550 3584 
Q 5097 3584 5394 3201 
Q 5691 2819 5691 2113 
L 5691 0 
L 5113 0 
L 5113 2094 
Q 5113 2597 4934 2840 
Q 4756 3084 4391 3084 
Q 3944 3084 3684 2787 
Q 3425 2491 3425 1978 
L 3425 0 
L 2847 0 
L 2847 2094 
Q 2847 2600 2669 2842 
Q 2491 3084 2119 3084 
Q 1678 3084 1418 2786 
Q 1159 2488 1159 1978 
L 1159 0 
L 581 0 
L 581 3500 
L 1159 3500 
L 1159 2956 
Q 1356 3278 1631 3431 
Q 1906 3584 2284 3584 
Q 2666 3584 2933 3390 
Q 3200 3197 3328 2828 
z
" transform="scale(0.015625)"/>
       <path id="DejaVuSans-65" d="M 3597 1894 
L 3597 1613 
L 953 1613 
Q 991 1019 1311 708 
Q 1631 397 2203 397 
Q 2534 397 2845 478 
Q 3156 559 3463 722 
L 3463 178 
Q 3153 47 2828 -22 
Q 2503 -91 2169 -91 
Q 1331 -91 842 396 
Q 353 884 353 1716 
Q 353 2575 817 3079 
Q 1281 3584 2069 3584 
Q 2775 3584 3186 3129 
Q 3597 2675 3597 1894 
z
M 3022 2063 
Q 3016 2534 2758 2815 
Q 2500 3097 2075 3097 
Q 1594 3097 1305 2825 
Q 1016 2553 972 2059 
L 3022 2063 
z
" transform="scale(0.015625)"/>
       <path id="DejaVuSans-20" transform="scale(0.015625)"/>
       <path id="DejaVuSans-5b" d="M 550 4863 
L 1875 4863 
L 1875 4416 
L 1125 4416 
L 1125 -397 
L 1875 -397 
L 1875 -844 
L 550 -844 
L 550 4863 
z
" transform="scale(0.015625)"/>
       <path id="DejaVuSans-79" d="M 2059 -325 
Q 1816 -950 1584 -1140 
Q 1353 -1331 966 -1331 
L 506 -1331 
L 506 -850 
L 844 -850 
Q 1081 -850 1212 -737 
Q 1344 -625 1503 -206 
L 1606 56 
L 191 3500 
L 800 3500 
L 1894 763 
L 2988 3500 
L 3597 3500 
L 2059 -325 
z
" transform="scale(0.015625)"/>
       <path id="DejaVuSans-61" d="M 2194 1759 
Q 1497 1759 1228 1600 
Q 959 1441 959 1056 
Q 959 750 1161 570 
Q 1363 391 1709 391 
Q 2188 391 2477 730 
Q 2766 1069 2766 1631 
L 2766 1759 
L 2194 1759 
z
M 3341 1997 
L 3341 0 
L 2766 0 
L 2766 531 
Q 2569 213 2275 61 
Q 1981 -91 1556 -91 
Q 1019 -91 701 211 
Q 384 513 384 1019 
Q 384 1609 779 1909 
Q 1175 2209 1959 2209 
L 2766 2209 
L 2766 2266 
Q 2766 2663 2505 2880 
Q 2244 3097 1772 3097 
Q 1472 3097 1187 3025 
Q 903 2953 641 2809 
L 641 3341 
Q 956 3463 1253 3523 
Q 1550 3584 1831 3584 
Q 2591 3584 2966 3190 
Q 3341 2797 3341 1997 
z
" transform="scale(0.015625)"/>
       <path id="DejaVuSans-72" d="M 2631 2963 
Q 2534 3019 2420 3045 
Q 2306 3072 2169 3072 
Q 1681 3072 1420 2755 
Q 1159 2438 1159 1844 
L 1159 0 
L 581 0 
L 581 3500 
L 1159 3500 
L 1159 2956 
Q 1341 3275 1631 3429 
Q 1922 3584 2338 3584 
Q 2397 3584 2469 3576 
Q 2541 3569 2628 3553 
L 2631 2963 
z
" transform="scale(0.015625)"/>
       <path id="DejaVuSans-73" d="M 2834 3397 
L 2834 2853 
Q 2591 2978 2328 3040 
Q 2066 3103 1784 3103 
Q 1356 3103 1142 2972 
Q 928 2841 928 2578 
Q 928 2378 1081 2264 
Q 1234 2150 1697 2047 
L 1894 2003 
Q 2506 1872 2764 1633 
Q 3022 1394 3022 966 
Q 3022 478 2636 193 
Q 2250 -91 1575 -91 
Q 1294 -91 989 -36 
Q 684 19 347 128 
L 347 722 
Q 666 556 975 473 
Q 1284 391 1588 391 
Q 1994 391 2212 530 
Q 2431 669 2431 922 
Q 2431 1156 2273 1281 
Q 2116 1406 1581 1522 
L 1381 1569 
Q 847 1681 609 1914 
Q 372 2147 372 2553 
Q 372 3047 722 3315 
Q 1072 3584 1716 3584 
Q 2034 3584 2315 3537 
Q 2597 3491 2834 3397 
z
" transform="scale(0.015625)"/>
       <path id="DejaVuSans-5d" d="M 1947 4863 
L 1947 -844 
L 622 -844 
L 622 -397 
L 1369 -397 
L 1369 4416 
L 622 4416 
L 622 4863 
L 1947 4863 
z
" transform="scale(0.015625)"/>
      </defs>
      <use xlink:href="#DejaVuSans-54"/>
      <use xlink:href="#DejaVuSans-69" x="57.958984"/>
      <use xlink:href="#DejaVuSans-6d" x="85.742188"/>
      <use xlink:href="#DejaVuSans-65" x="183.154297"/>
      <use xlink:href="#DejaVuSans-20" x="244.677734"/>
      <use xlink:href="#DejaVuSans-5b" x="276.464844"/>
      <use xlink:href="#DejaVuSans-79" x="315.478516"/>
      <use xlink:href="#DejaVuSans-65" x="374.658203"/>
      <use xlink:href="#DejaVuSans-61" x="436.181641"/>
      <use xlink:href="#DejaVuSans-72" x="497.460938"/>
      <use xlink:href="#DejaVuSans-73" x="538.574219"/>
      <use xlink:href="#DejaVuSans-5d" x="590.673828"/>
     </g>
    </g>
   </g>
   <g id="matplotlib.axis_2">
    <g id="ytick_1">
     <g id="line2d_9">
      <path d="M 57.6 274.584953 
L 414.72 274.584953 
" clip-path="url(#p33b333d432)" style="fill: none; stroke-dasharray: 2.96,1.28; stroke-dashoffset: 0; stroke: #b0b0b0; stroke-width: 0.8"/>
     </g>
     <g id="line2d_10">
      <defs>
       <path id="m180770db38" d="M 0 0 
L -3.5 0 
" style="stroke: #000000; stroke-width: 0.8"/>
      </defs>
      <g>
       <use xlink:href="#m180770db38" x="57.6" y="274.584953" style="stroke: #000000; stroke-width: 0.8"/>
      </g>
     </g>
     <g id="text_6">
      <!-- 1.0 -->
      <g transform="translate(34.696875 278.384172) scale(0.1 -0.1)">
       <defs>
        <path id="DejaVuSans-31" d="M 794 531 
L 1825 531 
L 1825 4091 
L 703 3866 
L 703 4441 
L 1819 4666 
L 2450 4666 
L 2450 531 
L 3481 531 
L 3481 0 
L 794 0 
L 794 531 
z
" transform="scale(0.015625)"/>
        <path id="DejaVuSans-2e" d="M 684 794 
L 1344 794 
L 1344 0 
L 684 0 
L 684 794 
z
" transform="scale(0.015625)"/>
        <path id="DejaVuSans-30" d="M 2034 4250 
Q 1547 4250 1301 3770 
Q 1056 3291 1056 2328 
Q 1056 1369 1301 889 
Q 1547 409 2034 409 
Q 2525 409 2770 889 
Q 3016 1369 3016 2328 
Q 3016 3291 2770 3770 
Q 2525 4250 2034 4250 
z
M 2034 4750 
Q 2819 4750 3233 4129 
Q 3647 3509 3647 2328 
Q 3647 1150 3233 529 
Q 2819 -91 2034 -91 
Q 1250 -91 836 529 
Q 422 1150 422 2328 
Q 422 3509 836 4129 
Q 1250 4750 2034 4750 
z
" transform="scale(0.015625)"/>
       </defs>
       <use xlink:href="#DejaVuSans-31"/>
       <use xlink:href="#DejaVuSans-2e" x="63.623047"/>
       <use xlink:href="#DejaVuSans-30" x="95.410156"/>
      </g>
     </g>
    </g>
    <g id="ytick_2">
     <g id="line2d_11">
      <path d="M 57.6 219.824307 
L 414.72 219.824307 
" clip-path="url(#p33b333d432)" style="fill: none; stroke-dasharray: 2.96,1.28; stroke-dashoffset: 0; stroke: #b0b0b0; stroke-width: 0.8"/>
     </g>
     <g id="line2d_12">
      <g>
       <use xlink:href="#m180770db38" x="57.6" y="219.824307" style="stroke: #000000; stroke-width: 0.8"/>
      </g>
     </g>
     <g id="text_7">
      <!-- 1.5 -->
      <g transform="translate(34.696875 223.623526) scale(0.1 -0.1)">
       <defs>
        <path id="DejaVuSans-35" d="M 691 4666 
L 3169 4666 
L 3169 4134 
L 1269 4134 
L 1269 2991 
Q 1406 3038 1543 3061 
Q 1681 3084 1819 3084 
Q 2600 3084 3056 2656 
Q 3513 2228 3513 1497 
Q 3513 744 3044 326 
Q 2575 -91 1722 -91 
Q 1428 -91 1123 -41 
Q 819 9 494 109 
L 494 744 
Q 775 591 1075 516 
Q 1375 441 1709 441 
Q 2250 441 2565 725 
Q 2881 1009 2881 1497 
Q 2881 1984 2565 2268 
Q 2250 2553 1709 2553 
Q 1456 2553 1204 2497 
Q 953 2441 691 2322 
L 691 4666 
z
" transform="scale(0.015625)"/>
       </defs>
       <use xlink:href="#DejaVuSans-31"/>
       <use xlink:href="#DejaVuSans-2e" x="63.623047"/>
       <use xlink:href="#DejaVuSans-35" x="95.410156"/>
      </g>
     </g>
    </g>
    <g id="ytick_3">
     <g id="line2d_13">
      <path d="M 57.6 165.063661 
L 414.72 165.063661 
" clip-path="url(#p33b333d432)" style="fill: none; stroke-dasharray: 2.96,1.28; stroke-dashoffset: 0; stroke: #b0b0b0; stroke-width: 0.8"/>
     </g>
     <g id="line2d_14">
      <g>
       <use xlink:href="#m180770db38" x="57.6" y="165.063661" style="stroke: #000000; stroke-width: 0.8"/>
      </g>
     </g>
     <g id="text_8">
      <!-- 2.0 -->
      <g transform="translate(34.696875 168.86288) scale(0.1 -0.1)">
       <use xlink:href="#DejaVuSans-32"/>
       <use xlink:href="#DejaVuSans-2e" x="63.623047"/>
       <use xlink:href="#DejaVuSans-30" x="95.410156"/>
      </g>
     </g>
    </g>
    <g id="ytick_4">
     <g id="line2d_15">
      <path d="M 57.6 110.303015 
L 414.72 110.303015 
" clip-path="url(#p33b333d432)" style="fill: none; stroke-dasharray: 2.96,1.28; stroke-dashoffset: 0; stroke: #b0b0b0; stroke-width: 0.8"/>
     </g>
     <g id="line2d_16">
      <g>
       <use xlink:href="#m180770db38" x="57.6" y="110.303015" style="stroke: #000000; stroke-width: 0.8"/>
      </g>
     </g>
     <g id="text_9">
      <!-- 2.5 -->
      <g transform="translate(34.696875 114.102234) scale(0.1 -0.1)">
       <use xlink:href="#DejaVuSans-32"/>
       <use xlink:href="#DejaVuSans-2e" x="63.623047"/>
       <use xlink:href="#DejaVuSans-35" x="95.410156"/>
      </g>
     </g>
    </g>
    <g id="ytick_5">
     <g id="line2d_17">
      <path d="M 57.6 55.542369 
L 414.72 55.542369 
" clip-path="url(#p33b333d432)" style="fill: none; stroke-dasharray: 2.96,1.28; stroke-dashoffset: 0; stroke: #b0b0b0; stroke-width: 0.8"/>
     </g>
     <g id="line2d_18">
      <g>
       <use xlink:href="#m180770db38" x="57.6" y="55.542369" style="stroke: #000000; stroke-width: 0.8"/>
      </g>
     </g>
     <g id="text_10">
      <!-- 3.0 -->
      <g transform="translate(34.696875 59.341588) scale(0.1 -0.1)">
       <defs>
        <path id="DejaVuSans-33" d="M 2597 2516 
Q 3050 2419 3304 2112 
Q 3559 1806 3559 1356 
Q 3559 666 3084 287 
Q 2609 -91 1734 -91 
Q 1441 -91 1130 -33 
Q 819 25 488 141 
L 488 750 
Q 750 597 1062 519 
Q 1375 441 1716 441 
Q 2309 441 2620 675 
Q 2931 909 2931 1356 
Q 2931 1769 2642 2001 
Q 2353 2234 1838 2234 
L 1294 2234 
L 1294 2753 
L 1863 2753 
Q 2328 2753 2575 2939 
Q 2822 3125 2822 3475 
Q 2822 3834 2567 4026 
Q 2313 4219 1838 4219 
Q 1578 4219 1281 4162 
Q 984 4106 628 3988 
L 628 4550 
Q 988 4650 1302 4700 
Q 1616 4750 1894 4750 
Q 2613 4750 3031 4423 
Q 3450 4097 3450 3541 
Q 3450 3153 3228 2886 
Q 3006 2619 2597 2516 
z
" transform="scale(0.015625)"/>
       </defs>
       <use xlink:href="#DejaVuSans-33"/>
       <use xlink:href="#DejaVuSans-2e" x="63.623047"/>
       <use xlink:href="#DejaVuSans-30" x="95.410156"/>
      </g>
     </g>
    </g>
    <g id="text_11">
     <!-- Thermal Resistance - $R_s$ [$m^2K/W$] -->
     <g transform="translate(28.617187 257.278) rotate(-90) scale(0.1 -0.1)">
      <defs>
       <path id="DejaVuSans-68" d="M 3513 2113 
L 3513 0 
L 2938 0 
L 2938 2094 
Q 2938 2591 2744 2837 
Q 2550 3084 2163 3084 
Q 1697 3084 1428 2787 
Q 1159 2491 1159 1978 
L 1159 0 
L 581 0 
L 581 4863 
L 1159 4863 
L 1159 2956 
Q 1366 3272 1645 3428 
Q 1925 3584 2291 3584 
Q 2894 3584 3203 3211 
Q 3513 2838 3513 2113 
z
" transform="scale(0.015625)"/>
       <path id="DejaVuSans-6c" d="M 603 4863 
L 1178 4863 
L 1178 0 
L 603 0 
L 603 4863 
z
" transform="scale(0.015625)"/>
       <path id="DejaVuSans-52" d="M 2841 2188 
Q 3044 2119 3236 1894 
Q 3428 1669 3622 1275 
L 4263 0 
L 3584 0 
L 2988 1197 
Q 2756 1666 2539 1819 
Q 2322 1972 1947 1972 
L 1259 1972 
L 1259 0 
L 628 0 
L 628 4666 
L 2053 4666 
Q 2853 4666 3247 4331 
Q 3641 3997 3641 3322 
Q 3641 2881 3436 2590 
Q 3231 2300 2841 2188 
z
M 1259 4147 
L 1259 2491 
L 2053 2491 
Q 2509 2491 2742 2702 
Q 2975 2913 2975 3322 
Q 2975 3731 2742 3939 
Q 2509 4147 2053 4147 
L 1259 4147 
z
" transform="scale(0.015625)"/>
       <path id="DejaVuSans-74" d="M 1172 4494 
L 1172 3500 
L 2356 3500 
L 2356 3053 
L 1172 3053 
L 1172 1153 
Q 1172 725 1289 603 
Q 1406 481 1766 481 
L 2356 481 
L 2356 0 
L 1766 0 
Q 1100 0 847 248 
Q 594 497 594 1153 
L 594 3053 
L 172 3053 
L 172 3500 
L 594 3500 
L 594 4494 
L 1172 4494 
z
" transform="scale(0.015625)"/>
       <path id="DejaVuSans-6e" d="M 3513 2113 
L 3513 0 
L 2938 0 
L 2938 2094 
Q 2938 2591 2744 2837 
Q 2550 3084 2163 3084 
Q 1697 3084 1428 2787 
Q 1159 2491 1159 1978 
L 1159 0 
L 581 0 
L 581 3500 
L 1159 3500 
L 1159 2956 
Q 1366 3272 1645 3428 
Q 1925 3584 2291 3584 
Q 2894 3584 3203 3211 
Q 3513 2838 3513 2113 
z
" transform="scale(0.015625)"/>
       <path id="DejaVuSans-63" d="M 3122 3366 
L 3122 2828 
Q 2878 2963 2633 3030 
Q 2388 3097 2138 3097 
Q 1578 3097 1268 2742 
Q 959 2388 959 1747 
Q 959 1106 1268 751 
Q 1578 397 2138 397 
Q 2388 397 2633 464 
Q 2878 531 3122 666 
L 3122 134 
Q 2881 22 2623 -34 
Q 2366 -91 2075 -91 
Q 1284 -91 818 406 
Q 353 903 353 1747 
Q 353 2603 823 3093 
Q 1294 3584 2113 3584 
Q 2378 3584 2631 3529 
Q 2884 3475 3122 3366 
z
" transform="scale(0.015625)"/>
       <path id="DejaVuSans-2d" d="M 313 2009 
L 1997 2009 
L 1997 1497 
L 313 1497 
L 313 2009 
z
" transform="scale(0.015625)"/>
       <path id="DejaVuSans-Oblique-52" d="M 1613 4147 
L 1294 2491 
L 2106 2491 
Q 2584 2491 2879 2755 
Q 3175 3019 3175 3444 
Q 3175 3784 2976 3965 
Q 2778 4147 2406 4147 
L 1613 4147 
z
M 2772 2241 
Q 2972 2194 3105 2009 
Q 3238 1825 3413 1275 
L 3809 0 
L 3144 0 
L 2778 1197 
Q 2638 1659 2453 1815 
Q 2269 1972 1888 1972 
L 1191 1972 
L 806 0 
L 172 0 
L 1081 4666 
L 2503 4666 
Q 3150 4666 3495 4373 
Q 3841 4081 3841 3531 
Q 3841 3044 3547 2687 
Q 3253 2331 2772 2241 
z
" transform="scale(0.015625)"/>
       <path id="DejaVuSans-Oblique-73" d="M 3200 3397 
L 3091 2853 
Q 2863 2978 2609 3040 
Q 2356 3103 2088 3103 
Q 1634 3103 1373 2948 
Q 1113 2794 1113 2528 
Q 1113 2219 1719 2053 
Q 1766 2041 1788 2034 
L 1972 1978 
Q 2547 1819 2739 1644 
Q 2931 1469 2931 1166 
Q 2931 609 2489 259 
Q 2047 -91 1331 -91 
Q 1053 -91 747 -37 
Q 441 16 72 128 
L 184 722 
Q 500 559 806 475 
Q 1113 391 1394 391 
Q 1816 391 2080 572 
Q 2344 753 2344 1031 
Q 2344 1331 1650 1516 
L 1591 1531 
L 1394 1581 
Q 956 1697 753 1886 
Q 550 2075 550 2369 
Q 550 2928 970 3256 
Q 1391 3584 2113 3584 
Q 2397 3584 2667 3537 
Q 2938 3491 3200 3397 
z
" transform="scale(0.015625)"/>
       <path id="DejaVuSans-Oblique-6d" d="M 5747 2113 
L 5338 0 
L 4763 0 
L 5166 2094 
Q 5191 2228 5203 2325 
Q 5216 2422 5216 2491 
Q 5216 2772 5059 2928 
Q 4903 3084 4622 3084 
Q 4203 3084 3875 2770 
Q 3547 2456 3450 1953 
L 3066 0 
L 2491 0 
L 2900 2094 
Q 2925 2209 2937 2307 
Q 2950 2406 2950 2484 
Q 2950 2769 2794 2926 
Q 2638 3084 2363 3084 
Q 1938 3084 1609 2770 
Q 1281 2456 1184 1953 
L 800 0 
L 225 0 
L 909 3500 
L 1484 3500 
L 1375 2956 
Q 1609 3263 1923 3423 
Q 2238 3584 2597 3584 
Q 2978 3584 3223 3384 
Q 3469 3184 3519 2828 
Q 3781 3197 4126 3390 
Q 4472 3584 4856 3584 
Q 5306 3584 5551 3325 
Q 5797 3066 5797 2591 
Q 5797 2488 5784 2364 
Q 5772 2241 5747 2113 
z
" transform="scale(0.015625)"/>
       <path id="DejaVuSans-Oblique-4b" d="M 1081 4666 
L 1716 4666 
L 1331 2700 
L 3781 4666 
L 4622 4666 
L 1850 2438 
L 3878 0 
L 3109 0 
L 1247 2272 
L 806 0 
L 172 0 
L 1081 4666 
z
" transform="scale(0.015625)"/>
       <path id="DejaVuSans-2f" d="M 1625 4666 
L 2156 4666 
L 531 -594 
L 0 -594 
L 1625 4666 
z
" transform="scale(0.015625)"/>
       <path id="DejaVuSans-Oblique-57" d="M 616 4666 
L 1228 4666 
L 1453 697 
L 3213 4666 
L 3916 4666 
L 4147 697 
L 5888 4666 
L 6528 4666 
L 4453 0 
L 3659 0 
L 3444 3891 
L 1697 0 
L 903 0 
L 616 4666 
z
" transform="scale(0.015625)"/>
      </defs>
      <use xlink:href="#DejaVuSans-54" transform="translate(0 0.765625)"/>
      <use xlink:href="#DejaVuSans-68" transform="translate(61.083984 0.765625)"/>
      <use xlink:href="#DejaVuSans-65" transform="translate(124.462891 0.765625)"/>
      <use xlink:href="#DejaVuSans-72" transform="translate(185.986328 0.765625)"/>
      <use xlink:href="#DejaVuSans-6d" transform="translate(227.099609 0.765625)"/>
      <use xlink:href="#DejaVuSans-61" transform="translate(324.511719 0.765625)"/>
      <use xlink:href="#DejaVuSans-6c" transform="translate(385.791016 0.765625)"/>
      <use xlink:href="#DejaVuSans-20" transform="translate(413.574219 0.765625)"/>
      <use xlink:href="#DejaVuSans-52" transform="translate(445.361328 0.765625)"/>
      <use xlink:href="#DejaVuSans-65" transform="translate(514.84375 0.765625)"/>
      <use xlink:href="#DejaVuSans-73" transform="translate(576.367188 0.765625)"/>
      <use xlink:href="#DejaVuSans-69" transform="translate(628.466797 0.765625)"/>
      <use xlink:href="#DejaVuSans-73" transform="translate(656.25 0.765625)"/>
      <use xlink:href="#DejaVuSans-74" transform="translate(708.349609 0.765625)"/>
      <use xlink:href="#DejaVuSans-61" transform="translate(747.558594 0.765625)"/>
      <use xlink:href="#DejaVuSans-6e" transform="translate(808.837891 0.765625)"/>
      <use xlink:href="#DejaVuSans-63" transform="translate(872.216797 0.765625)"/>
      <use xlink:href="#DejaVuSans-65" transform="translate(927.197266 0.765625)"/>
      <use xlink:href="#DejaVuSans-20" transform="translate(988.720703 0.765625)"/>
      <use xlink:href="#DejaVuSans-2d" transform="translate(1020.507812 0.765625)"/>
      <use xlink:href="#DejaVuSans-20" transform="translate(1056.591797 0.765625)"/>
      <use xlink:href="#DejaVuSans-Oblique-52" transform="translate(1088.378906 0.765625)"/>
      <use xlink:href="#DejaVuSans-Oblique-73" transform="translate(1157.861328 -15.640625) scale(0.7)"/>
      <use xlink:href="#DejaVuSans-20" transform="translate(1197.06543 0.765625)"/>
      <use xlink:href="#DejaVuSans-5b" transform="translate(1228.852539 0.765625)"/>
      <use xlink:href="#DejaVuSans-Oblique-6d" transform="translate(1267.866211 0.765625)"/>
      <use xlink:href="#DejaVuSans-32" transform="translate(1369.928216 39.046875) scale(0.7)"/>
      <use xlink:href="#DejaVuSans-Oblique-4b" transform="translate(1417.198724 0.765625)"/>
      <use xlink:href="#DejaVuSans-2f" transform="translate(1482.774896 0.765625)"/>
      <use xlink:href="#DejaVuSans-Oblique-57" transform="translate(1516.466302 0.765625)"/>
      <use xlink:href="#DejaVuSans-5d" transform="translate(1615.343255 0.765625)"/>
     </g>
    </g>
   </g>
   <g id="line2d_19">
    <path d="M 73.832727 254.33982 
L 91.869091 244.850523 
L 109.905455 239.29964 
L 127.941818 235.361226 
L 145.978182 232.306355 
L 164.014545 229.810343 
L 182.050909 227.699996 
L 200.087273 225.871929 
L 218.123636 224.259461 
L 236.16 222.817058 
L 254.196364 221.512246 
L 272.232727 220.321046 
L 290.269091 219.225249 
L 308.305455 218.210699 
L 326.341818 217.266175 
L 344.378182 216.382632 
L 362.414545 215.552672 
L 380.450909 214.770164 
L 398.487273 214.029975 
" clip-path="url(#p33b333d432)" style="fill: none; stroke: #1f77b4; stroke-width: 1.5; stroke-linecap: square"/>
   </g>
   <g id="line2d_20">
    <path d="M 73.832727 257.296859 
L 91.869091 247.807562 
L 109.905455 242.256679 
L 127.941818 238.318265 
L 145.978182 235.263394 
L 164.014545 232.767382 
L 182.050909 230.657034 
L 200.087273 228.828968 
L 218.123636 227.216499 
L 236.16 225.774097 
L 254.196364 224.469285 
L 272.232727 223.278085 
L 290.269091 222.182288 
L 308.305455 221.167738 
L 326.341818 220.223214 
L 344.378182 219.339671 
L 362.414545 218.50971 
L 380.450909 217.727203 
L 398.487273 216.987014 
" clip-path="url(#p33b333d432)" style="fill: none; stroke: #ff7f0e; stroke-width: 1.5; stroke-linecap: square"/>
   </g>
   <g id="line2d_21">
    <path d="M 73.832727 293.346487 
L 91.869091 287.020289 
L 109.905455 283.3197 
L 127.941818 280.694091 
L 145.978182 278.65751 
L 164.014545 276.993502 
L 182.050909 275.586604 
L 200.087273 274.367893 
L 218.123636 273.292914 
L 236.16 272.331312 
L 254.196364 271.461438 
L 272.232727 270.667305 
L 290.269091 269.936773 
L 308.305455 269.260406 
L 326.341818 268.630724 
L 344.378182 268.041695 
L 362.414545 267.488388 
L 380.450909 266.966716 
L 398.487273 266.473257 
" clip-path="url(#p33b333d432)" style="fill: none; stroke: #2ca02c; stroke-width: 1.5; stroke-linecap: square"/>
   </g>
   <g id="line2d_22">
    <path d="M 73.832727 134.187691 
L 91.869091 115.209097 
L 109.905455 104.107331 
L 127.941818 96.230503 
L 145.978182 90.120761 
L 164.014545 85.128737 
L 182.050909 80.908042 
L 200.087273 77.251909 
L 218.123636 74.026972 
L 236.16 71.142167 
L 254.196364 68.532543 
L 272.232727 66.150144 
L 290.269091 63.958548 
L 308.305455 61.929448 
L 326.341818 60.040401 
L 344.378182 58.273316 
L 362.414545 56.613394 
L 380.450909 55.048378 
L 398.487273 53.568 
" clip-path="url(#p33b333d432)" style="fill: none; stroke: #d62728; stroke-width: 1.5; stroke-linecap: square"/>
   </g>
   <g id="line2d_23">
    <path d="M 73.832727 287.443316 
L 91.869091 281.117118 
L 109.905455 277.41653 
L 127.941818 274.79092 
L 145.978182 272.754339 
L 164.014545 271.090332 
L 182.050909 269.683433 
L 200.087273 268.464722 
L 218.123636 267.389743 
L 236.16 266.428142 
L 254.196364 265.558267 
L 272.232727 264.764134 
L 290.269091 264.033602 
L 308.305455 263.357235 
L 326.341818 262.727553 
L 344.378182 262.138524 
L 362.414545 261.585217 
L 380.450909 261.063545 
L 398.487273 260.570086 
" clip-path="url(#p33b333d432)" style="fill: none; stroke: #9467bd; stroke-width: 1.5; stroke-linecap: square"/>
   </g>
   <g id="line2d_24">
    <path d="M 73.832727 292.932613 
L 91.869091 286.606415 
L 109.905455 282.905826 
L 127.941818 280.280217 
L 145.978182 278.243636 
L 164.014545 276.579628 
L 182.050909 275.17273 
L 200.087273 273.954019 
L 218.123636 272.87904 
L 236.16 271.917438 
L 254.196364 271.047564 
L 272.232727 270.253431 
L 290.269091 269.522899 
L 308.305455 268.846532 
L 326.341818 268.21685 
L 344.378182 267.627821 
L 362.414545 267.074514 
L 380.450909 266.552842 
L 398.487273 266.059383 
" clip-path="url(#p33b333d432)" style="fill: none; stroke: #8c564b; stroke-width: 1.5; stroke-linecap: square"/>
   </g>
   <g id="line2d_25">
    <path d="M 73.832727 256.210554 
L 91.869091 246.721257 
L 109.905455 241.170374 
L 127.941818 237.23196 
L 145.978182 234.177089 
L 164.014545 231.681077 
L 182.050909 229.57073 
L 200.087273 227.742663 
L 218.123636 226.130194 
L 236.16 224.687792 
L 254.196364 223.38298 
L 272.232727 222.19178 
L 290.269091 221.095983 
L 308.305455 220.081433 
L 326.341818 219.136909 
L 344.378182 218.253366 
L 362.414545 217.423405 
L 380.450909 216.640898 
L 398.487273 215.900709 
" clip-path="url(#p33b333d432)" style="fill: none; stroke: #e377c2; stroke-width: 1.5; stroke-linecap: square"/>
   </g>
   <g id="line2d_26">
    <path d="M 73.832727 291.644064 
L 91.869091 285.317866 
L 109.905455 281.617278 
L 127.941818 278.991668 
L 145.978182 276.955088 
L 164.014545 275.29108 
L 182.050909 273.884181 
L 200.087273 272.66547 
L 218.123636 271.590491 
L 236.16 270.62889 
L 254.196364 269.759015 
L 272.232727 268.964882 
L 290.269091 268.23435 
L 308.305455 267.557983 
L 326.341818 266.928301 
L 344.378182 266.339273 
L 362.414545 265.785965 
L 380.450909 265.264293 
L 398.487273 264.770834 
" clip-path="url(#p33b333d432)" style="fill: none; stroke: #7f7f7f; stroke-width: 1.5; stroke-linecap: square"/>
   </g>
   <g id="line2d_27">
    <path d="M 73.832727 142.006996 
L 91.869091 123.028402 
L 109.905455 111.926637 
L 127.941818 104.049809 
L 145.978182 97.940066 
L 164.014545 92.948043 
L 182.050909 88.727347 
L 200.087273 85.071215 
L 218.123636 81.846277 
L 236.16 78.961472 
L 254.196364 76.351849 
L 272.232727 73.969449 
L 290.269091 71.777854 
L 308.305455 69.748754 
L 326.341818 67.859707 
L 344.378182 66.092621 
L 362.414545 64.432699 
L 380.450909 62.867684 
L 398.487273 61.387306 
" clip-path="url(#p33b333d432)" style="fill: none; stroke: #bcbd22; stroke-width: 1.5; stroke-linecap: square"/>
   </g>
   <g id="line2d_28">
    <path d="M 73.832727 295.488 
L 91.869091 289.161802 
L 109.905455 285.461214 
L 127.941818 282.835604 
L 145.978182 280.799023 
L 164.014545 279.135016 
L 182.050909 277.728117 
L 200.087273 276.509406 
L 218.123636 275.434427 
L 236.16 274.472825 
L 254.196364 273.602951 
L 272.232727 272.808818 
L 290.269091 272.078286 
L 308.305455 271.401919 
L 326.341818 270.772237 
L 344.378182 270.183208 
L 362.414545 269.629901 
L 380.450909 269.108229 
L 398.487273 268.61477 
" clip-path="url(#p33b333d432)" style="fill: none; stroke: #17becf; stroke-width: 1.5; stroke-linecap: square"/>
   </g>
   <g id="patch_3">
    <path d="M 57.6 307.584 
L 57.6 41.472 
" style="fill: none; stroke: #000000; stroke-width: 0.8; stroke-linejoin: miter; stroke-linecap: square"/>
   </g>
   <g id="patch_4">
    <path d="M 414.72 307.584 
L 414.72 41.472 
" style="fill: none; stroke: #000000; stroke-width: 0.8; stroke-linejoin: miter; stroke-linecap: square"/>
   </g>
   <g id="patch_5">
    <path d="M 57.6 307.584 
L 414.72 307.584 
" style="fill: none; stroke: #000000; stroke-width: 0.8; stroke-linejoin: miter; stroke-linecap: square"/>
   </g>
   <g id="patch_6">
    <path d="M 57.6 41.472 
L 414.72 41.472 
" style="fill: none; stroke: #000000; stroke-width: 0.8; stroke-linejoin: miter; stroke-linecap: square"/>
   </g>
   <g id="legend_1">
    <g id="patch_7">
     <path d="M 62.458 232.123494 
L 154.1354 232.123494 
Q 155.5234 232.123494 155.5234 230.735494 
L 155.5234 118.320506 
Q 155.5234 116.932506 154.1354 116.932506 
L 62.458 116.932506 
Q 61.07 116.932506 61.07 118.320506 
L 61.07 230.735494 
Q 61.07 232.123494 62.458 232.123494 
z
" style="fill: #ffffff; opacity: 0.8; stroke: #cccccc; stroke-linejoin: miter"/>
    </g>
    <g id="text_12">
     <!-- Thermal diffusivity [$m^2/s$] -->
     <g transform="translate(63.846 126.023906) scale(0.0694 -0.0694)">
      <defs>
       <path id="DejaVuSans-64" d="M 2906 2969 
L 2906 4863 
L 3481 4863 
L 3481 0 
L 2906 0 
L 2906 525 
Q 2725 213 2448 61 
Q 2172 -91 1784 -91 
Q 1150 -91 751 415 
Q 353 922 353 1747 
Q 353 2572 751 3078 
Q 1150 3584 1784 3584 
Q 2172 3584 2448 3432 
Q 2725 3281 2906 2969 
z
M 947 1747 
Q 947 1113 1208 752 
Q 1469 391 1925 391 
Q 2381 391 2643 752 
Q 2906 1113 2906 1747 
Q 2906 2381 2643 2742 
Q 2381 3103 1925 3103 
Q 1469 3103 1208 2742 
Q 947 2381 947 1747 
z
" transform="scale(0.015625)"/>
       <path id="DejaVuSans-66" d="M 2375 4863 
L 2375 4384 
L 1825 4384 
Q 1516 4384 1395 4259 
Q 1275 4134 1275 3809 
L 1275 3500 
L 2222 3500 
L 2222 3053 
L 1275 3053 
L 1275 0 
L 697 0 
L 697 3053 
L 147 3053 
L 147 3500 
L 697 3500 
L 697 3744 
Q 697 4328 969 4595 
Q 1241 4863 1831 4863 
L 2375 4863 
z
" transform="scale(0.015625)"/>
       <path id="DejaVuSans-75" d="M 544 1381 
L 544 3500 
L 1119 3500 
L 1119 1403 
Q 1119 906 1312 657 
Q 1506 409 1894 409 
Q 2359 409 2629 706 
Q 2900 1003 2900 1516 
L 2900 3500 
L 3475 3500 
L 3475 0 
L 2900 0 
L 2900 538 
Q 2691 219 2414 64 
Q 2138 -91 1772 -91 
Q 1169 -91 856 284 
Q 544 659 544 1381 
z
M 1991 3584 
L 1991 3584 
z
" transform="scale(0.015625)"/>
       <path id="DejaVuSans-76" d="M 191 3500 
L 800 3500 
L 1894 563 
L 2988 3500 
L 3597 3500 
L 2284 0 
L 1503 0 
L 191 3500 
z
" transform="scale(0.015625)"/>
      </defs>
      <use xlink:href="#DejaVuSans-54" transform="translate(0 0.765625)"/>
      <use xlink:href="#DejaVuSans-68" transform="translate(61.083984 0.765625)"/>
      <use xlink:href="#DejaVuSans-65" transform="translate(124.462891 0.765625)"/>
      <use xlink:href="#DejaVuSans-72" transform="translate(185.986328 0.765625)"/>
      <use xlink:href="#DejaVuSans-6d" transform="translate(227.099609 0.765625)"/>
      <use xlink:href="#DejaVuSans-61" transform="translate(324.511719 0.765625)"/>
      <use xlink:href="#DejaVuSans-6c" transform="translate(385.791016 0.765625)"/>
      <use xlink:href="#DejaVuSans-20" transform="translate(413.574219 0.765625)"/>
      <use xlink:href="#DejaVuSans-64" transform="translate(445.361328 0.765625)"/>
      <use xlink:href="#DejaVuSans-69" transform="translate(508.837891 0.765625)"/>
      <use xlink:href="#DejaVuSans-66" transform="translate(536.621094 0.765625)"/>
      <use xlink:href="#DejaVuSans-66" transform="translate(571.826172 0.765625)"/>
      <use xlink:href="#DejaVuSans-75" transform="translate(607.03125 0.765625)"/>
      <use xlink:href="#DejaVuSans-73" transform="translate(670.410156 0.765625)"/>
      <use xlink:href="#DejaVuSans-69" transform="translate(722.509766 0.765625)"/>
      <use xlink:href="#DejaVuSans-76" transform="translate(750.292969 0.765625)"/>
      <use xlink:href="#DejaVuSans-69" transform="translate(809.472656 0.765625)"/>
      <use xlink:href="#DejaVuSans-74" transform="translate(837.255859 0.765625)"/>
      <use xlink:href="#DejaVuSans-79" transform="translate(876.464844 0.765625)"/>
      <use xlink:href="#DejaVuSans-20" transform="translate(935.644531 0.765625)"/>
      <use xlink:href="#DejaVuSans-5b" transform="translate(967.431641 0.765625)"/>
      <use xlink:href="#DejaVuSans-Oblique-6d" transform="translate(1006.445312 0.765625)"/>
      <use xlink:href="#DejaVuSans-32" transform="translate(1108.507318 39.046875) scale(0.7)"/>
      <use xlink:href="#DejaVuSans-2f" transform="translate(1155.777826 0.765625)"/>
      <use xlink:href="#DejaVuSans-Oblique-73" transform="translate(1189.469232 0.765625)"/>
      <use xlink:href="#DejaVuSans-5d" transform="translate(1241.568841 0.765625)"/>
     </g>
    </g>
    <g id="line2d_29">
     <path d="M 79.661609 133.795622 
L 86.601609 133.795622 
L 93.541609 133.795622 
" style="fill: none; stroke: #1f77b4; stroke-width: 1.5; stroke-linecap: square"/>
    </g>
    <g id="text_13">
     <!-- α 1.17e-06 -->
     <g transform="translate(99.093609 136.224622) scale(0.0694 -0.0694)">
      <defs>
       <path id="DejaVuSans-3b1" d="M 2644 1628 
L 2506 2350 
Q 2366 3091 1809 3091 
Q 1391 3091 1200 2747 
Q 959 2316 959 1747 
Q 959 1059 1194 731 
Q 1431 397 1809 397 
Q 2228 397 2453 1063 
L 2644 1628 
z
M 2966 2584 
L 3275 3500 
L 3788 3500 
L 3147 1603 
L 3272 919 
Q 3300 766 3409 638 
Q 3538 488 3638 488 
L 3913 488 
L 3913 0 
L 3569 0 
Q 3275 0 3013 263 
Q 2884 394 2831 669 
Q 2688 322 2394 50 
Q 2256 -78 1809 -78 
Q 1075 -78 719 397 
Q 353 888 353 1747 
Q 353 2666 750 3097 
Q 1191 3578 1809 3578 
Q 2781 3578 2966 2584 
z
" transform="scale(0.015625)"/>
       <path id="DejaVuSans-37" d="M 525 4666 
L 3525 4666 
L 3525 4397 
L 1831 0 
L 1172 0 
L 2766 4134 
L 525 4134 
L 525 4666 
z
" transform="scale(0.015625)"/>
      </defs>
      <use xlink:href="#DejaVuSans-3b1"/>
      <use xlink:href="#DejaVuSans-20" x="65.917969"/>
      <use xlink:href="#DejaVuSans-31" x="97.705078"/>
      <use xlink:href="#DejaVuSans-2e" x="161.328125"/>
      <use xlink:href="#DejaVuSans-31" x="193.115234"/>
      <use xlink:href="#DejaVuSans-37" x="256.738281"/>
      <use xlink:href="#DejaVuSans-65" x="320.361328"/>
      <use xlink:href="#DejaVuSans-2d" x="381.884766"/>
      <use xlink:href="#DejaVuSans-30" x="417.96875"/>
      <use xlink:href="#DejaVuSans-36" x="481.591797"/>
     </g>
    </g>
    <g id="line2d_30">
     <path d="M 79.661609 143.982241 
L 86.601609 143.982241 
L 93.541609 143.982241 
" style="fill: none; stroke: #ff7f0e; stroke-width: 1.5; stroke-linecap: square"/>
    </g>
    <g id="text_14">
     <!-- α 9.4e-07 -->
     <g transform="translate(99.093609 146.411241) scale(0.0694 -0.0694)">
      <defs>
       <path id="DejaVuSans-39" d="M 703 97 
L 703 672 
Q 941 559 1184 500 
Q 1428 441 1663 441 
Q 2288 441 2617 861 
Q 2947 1281 2994 2138 
Q 2813 1869 2534 1725 
Q 2256 1581 1919 1581 
Q 1219 1581 811 2004 
Q 403 2428 403 3163 
Q 403 3881 828 4315 
Q 1253 4750 1959 4750 
Q 2769 4750 3195 4129 
Q 3622 3509 3622 2328 
Q 3622 1225 3098 567 
Q 2575 -91 1691 -91 
Q 1453 -91 1209 -44 
Q 966 3 703 97 
z
M 1959 2075 
Q 2384 2075 2632 2365 
Q 2881 2656 2881 3163 
Q 2881 3666 2632 3958 
Q 2384 4250 1959 4250 
Q 1534 4250 1286 3958 
Q 1038 3666 1038 3163 
Q 1038 2656 1286 2365 
Q 1534 2075 1959 2075 
z
" transform="scale(0.015625)"/>
      </defs>
      <use xlink:href="#DejaVuSans-3b1"/>
      <use xlink:href="#DejaVuSans-20" x="65.917969"/>
      <use xlink:href="#DejaVuSans-39" x="97.705078"/>
      <use xlink:href="#DejaVuSans-2e" x="161.328125"/>
      <use xlink:href="#DejaVuSans-34" x="193.115234"/>
      <use xlink:href="#DejaVuSans-65" x="256.738281"/>
      <use xlink:href="#DejaVuSans-2d" x="318.261719"/>
      <use xlink:href="#DejaVuSans-30" x="354.345703"/>
      <use xlink:href="#DejaVuSans-37" x="417.96875"/>
     </g>
    </g>
    <g id="line2d_31">
     <path d="M 79.661609 154.168859 
L 86.601609 154.168859 
L 93.541609 154.168859 
" style="fill: none; stroke: #2ca02c; stroke-width: 1.5; stroke-linecap: square"/>
    </g>
    <g id="text_15">
     <!-- α 1.86e-06 -->
     <g transform="translate(99.093609 156.597859) scale(0.0694 -0.0694)">
      <use xlink:href="#DejaVuSans-3b1"/>
      <use xlink:href="#DejaVuSans-20" x="65.917969"/>
      <use xlink:href="#DejaVuSans-31" x="97.705078"/>
      <use xlink:href="#DejaVuSans-2e" x="161.328125"/>
      <use xlink:href="#DejaVuSans-38" x="193.115234"/>
      <use xlink:href="#DejaVuSans-36" x="256.738281"/>
      <use xlink:href="#DejaVuSans-65" x="320.361328"/>
      <use xlink:href="#DejaVuSans-2d" x="381.884766"/>
      <use xlink:href="#DejaVuSans-30" x="417.96875"/>
      <use xlink:href="#DejaVuSans-36" x="481.591797"/>
     </g>
    </g>
    <g id="line2d_32">
     <path d="M 79.661609 164.355478 
L 86.601609 164.355478 
L 93.541609 164.355478 
" style="fill: none; stroke: #d62728; stroke-width: 1.5; stroke-linecap: square"/>
    </g>
    <g id="text_16">
     <!-- α 8.2e-07 -->
     <g transform="translate(99.093609 166.784478) scale(0.0694 -0.0694)">
      <use xlink:href="#DejaVuSans-3b1"/>
      <use xlink:href="#DejaVuSans-20" x="65.917969"/>
      <use xlink:href="#DejaVuSans-38" x="97.705078"/>
      <use xlink:href="#DejaVuSans-2e" x="161.328125"/>
      <use xlink:href="#DejaVuSans-32" x="193.115234"/>
      <use xlink:href="#DejaVuSans-65" x="256.738281"/>
      <use xlink:href="#DejaVuSans-2d" x="318.261719"/>
      <use xlink:href="#DejaVuSans-30" x="354.345703"/>
      <use xlink:href="#DejaVuSans-37" x="417.96875"/>
     </g>
    </g>
    <g id="line2d_33">
     <path d="M 79.661609 174.542097 
L 86.601609 174.542097 
L 93.541609 174.542097 
" style="fill: none; stroke: #9467bd; stroke-width: 1.5; stroke-linecap: square"/>
    </g>
    <g id="text_17">
     <!-- α 3.55e-06 -->
     <g transform="translate(99.093609 176.971097) scale(0.0694 -0.0694)">
      <use xlink:href="#DejaVuSans-3b1"/>
      <use xlink:href="#DejaVuSans-20" x="65.917969"/>
      <use xlink:href="#DejaVuSans-33" x="97.705078"/>
      <use xlink:href="#DejaVuSans-2e" x="161.328125"/>
      <use xlink:href="#DejaVuSans-35" x="193.115234"/>
      <use xlink:href="#DejaVuSans-35" x="256.738281"/>
      <use xlink:href="#DejaVuSans-65" x="320.361328"/>
      <use xlink:href="#DejaVuSans-2d" x="381.884766"/>
      <use xlink:href="#DejaVuSans-30" x="417.96875"/>
      <use xlink:href="#DejaVuSans-36" x="481.591797"/>
     </g>
    </g>
    <g id="line2d_34">
     <path d="M 79.661609 184.728716 
L 86.601609 184.728716 
L 93.541609 184.728716 
" style="fill: none; stroke: #8c564b; stroke-width: 1.5; stroke-linecap: square"/>
    </g>
    <g id="text_18">
     <!-- α 1.94e-06 -->
     <g transform="translate(99.093609 187.157716) scale(0.0694 -0.0694)">
      <use xlink:href="#DejaVuSans-3b1"/>
      <use xlink:href="#DejaVuSans-20" x="65.917969"/>
      <use xlink:href="#DejaVuSans-31" x="97.705078"/>
      <use xlink:href="#DejaVuSans-2e" x="161.328125"/>
      <use xlink:href="#DejaVuSans-39" x="193.115234"/>
      <use xlink:href="#DejaVuSans-34" x="256.738281"/>
      <use xlink:href="#DejaVuSans-65" x="320.361328"/>
      <use xlink:href="#DejaVuSans-2d" x="381.884766"/>
      <use xlink:href="#DejaVuSans-30" x="417.96875"/>
      <use xlink:href="#DejaVuSans-36" x="481.591797"/>
     </g>
    </g>
    <g id="line2d_35">
     <path d="M 79.661609 194.915334 
L 86.601609 194.915334 
L 93.541609 194.915334 
" style="fill: none; stroke: #e377c2; stroke-width: 1.5; stroke-linecap: square"/>
    </g>
    <g id="text_19">
     <!-- α 1.02e-06 -->
     <g transform="translate(99.093609 197.344334) scale(0.0694 -0.0694)">
      <use xlink:href="#DejaVuSans-3b1"/>
      <use xlink:href="#DejaVuSans-20" x="65.917969"/>
      <use xlink:href="#DejaVuSans-31" x="97.705078"/>
      <use xlink:href="#DejaVuSans-2e" x="161.328125"/>
      <use xlink:href="#DejaVuSans-30" x="193.115234"/>
      <use xlink:href="#DejaVuSans-32" x="256.738281"/>
      <use xlink:href="#DejaVuSans-65" x="320.361328"/>
      <use xlink:href="#DejaVuSans-2d" x="381.884766"/>
      <use xlink:href="#DejaVuSans-30" x="417.96875"/>
      <use xlink:href="#DejaVuSans-36" x="481.591797"/>
     </g>
    </g>
    <g id="line2d_36">
     <path d="M 79.661609 205.101953 
L 86.601609 205.101953 
L 93.541609 205.101953 
" style="fill: none; stroke: #7f7f7f; stroke-width: 1.5; stroke-linecap: square"/>
    </g>
    <g id="text_20">
     <!-- α 2.24e-06 -->
     <g transform="translate(99.093609 207.530953) scale(0.0694 -0.0694)">
      <use xlink:href="#DejaVuSans-3b1"/>
      <use xlink:href="#DejaVuSans-20" x="65.917969"/>
      <use xlink:href="#DejaVuSans-32" x="97.705078"/>
      <use xlink:href="#DejaVuSans-2e" x="161.328125"/>
      <use xlink:href="#DejaVuSans-32" x="193.115234"/>
      <use xlink:href="#DejaVuSans-34" x="256.738281"/>
      <use xlink:href="#DejaVuSans-65" x="320.361328"/>
      <use xlink:href="#DejaVuSans-2d" x="381.884766"/>
      <use xlink:href="#DejaVuSans-30" x="417.96875"/>
      <use xlink:href="#DejaVuSans-36" x="481.591797"/>
     </g>
    </g>
    <g id="line2d_37">
     <path d="M 79.661609 215.288572 
L 86.601609 215.288572 
L 93.541609 215.288572 
" style="fill: none; stroke: #bcbd22; stroke-width: 1.5; stroke-linecap: square"/>
    </g>
    <g id="text_21">
     <!-- α 6.2e-07 -->
     <g transform="translate(99.093609 217.717572) scale(0.0694 -0.0694)">
      <use xlink:href="#DejaVuSans-3b1"/>
      <use xlink:href="#DejaVuSans-20" x="65.917969"/>
      <use xlink:href="#DejaVuSans-36" x="97.705078"/>
      <use xlink:href="#DejaVuSans-2e" x="161.328125"/>
      <use xlink:href="#DejaVuSans-32" x="193.115234"/>
      <use xlink:href="#DejaVuSans-65" x="256.738281"/>
      <use xlink:href="#DejaVuSans-2d" x="318.261719"/>
      <use xlink:href="#DejaVuSans-30" x="354.345703"/>
      <use xlink:href="#DejaVuSans-37" x="417.96875"/>
     </g>
    </g>
    <g id="line2d_38">
     <path d="M 79.661609 225.475191 
L 86.601609 225.475191 
L 93.541609 225.475191 
" style="fill: none; stroke: #17becf; stroke-width: 1.5; stroke-linecap: square"/>
    </g>
    <g id="text_22">
     <!-- α 1.47e-06 -->
     <g transform="translate(99.093609 227.904191) scale(0.0694 -0.0694)">
      <use xlink:href="#DejaVuSans-3b1"/>
      <use xlink:href="#DejaVuSans-20" x="65.917969"/>
      <use xlink:href="#DejaVuSans-31" x="97.705078"/>
      <use xlink:href="#DejaVuSans-2e" x="161.328125"/>
      <use xlink:href="#DejaVuSans-34" x="193.115234"/>
      <use xlink:href="#DejaVuSans-37" x="256.738281"/>
      <use xlink:href="#DejaVuSans-65" x="320.361328"/>
      <use xlink:href="#DejaVuSans-2d" x="381.884766"/>
      <use xlink:href="#DejaVuSans-30" x="417.96875"/>
      <use xlink:href="#DejaVuSans-36" x="481.591797"/>
     </g>
    </g>
   </g>
  </g>
 </g>
 <defs>
  <clipPath id="p33b333d432">
   <rect x="57.6" y="41.472" width="357.12" height="266.112"/>
  </clipPath>
 </defs>
</svg>
